<svg id="Layer_1" data-name="Layer 1" xmlns="http://www.w3.org/2000/svg" viewBox="0 0 280 300"><defs><style>.cls-1{fill:#fff;}.cls-2{fill:#54c1de;}</style></defs><title>react logo</title><path class="cls-1" d="M51.7,149.71c0,13.34,13,25.79,33.55,32.81-4.1,20.64-.73,37.28,10.51,43.76,11.55,6.66,28.77,2.05,45.1-12.23,15.93,13.71,32,19.1,43.25,12.6C195.66,220,199.17,202.2,195,180.91c21.39-7.07,33.35-17.68,33.35-31.2,0-13-13.05-24.29-33.3-31.27,4.54-22.16.69-38.4-11-45.15-11.29-6.5-27.57-.83-43.73,13.23C123.45,71.59,107.33,67,95.63,73.81,84.36,80.33,81.14,97.27,85.25,118.3,65.41,125.21,51.7,136.74,51.7,149.71Z"/><path class="cls-2" d="M190.71,125.37q-2.44-.84-5.05-1.59.43-1.75.78-3.45c3.82-18.55,1.32-33.49-7.21-38.41-8.18-4.72-21.56.2-35.08,12-1.3,1.13-2.6,2.33-3.9,3.58-.87-.83-1.74-1.63-2.6-2.4-14.16-12.58-28.36-17.87-36.89-12.94-8.17,4.73-10.59,18.78-7.15,36.36.33,1.7.72,3.44,1.16,5.2q-3,.85-5.81,1.83c-16.6,5.78-27.2,14.86-27.2,24.27,0,9.72,11.38,19.47,28.67,25.38,1.37.47,2.79.91,4.25,1.33-.48,1.9-.89,3.77-1.24,5.59-3.28,17.28-.72,31,7.44,35.7,8.42,4.86,22.55-.13,36.31-12.16q1.63-1.43,3.27-3c1.42,1.37,2.84,2.66,4.24,3.87,13.33,11.47,26.5,16.1,34.64,11.39,8.42-4.87,11.15-19.61,7.6-37.54-.27-1.37-.59-2.77-.94-4.19,1-.3,2-.6,2.92-.91,18-6,29.68-15.59,29.68-25.44,0-9.45-10.95-18.58-27.89-24.41Z"/><path class="cls-1" d="M186.81,168.86c-.86.28-1.74.55-2.64.82a156.75,156.75,0,0,0-7.94-19.87,156.7,156.7,0,0,0,7.64-19.58c1.6.47,3.16,1,4.66,1.47,14.51,5,23.36,12.39,23.36,18.08,0,6.06-9.56,13.93-25.08,19.08Zm-6.44,12.76c1.57,7.93,1.79,15.1.75,20.7-.93,5-2.81,8.39-5.13,9.74-5,2.86-15.52-.86-26.92-10.67-1.3-1.12-2.62-2.33-3.94-3.6a156.89,156.89,0,0,0,13.15-16.69,156.36,156.36,0,0,0,21.24-3.27c.32,1.29.6,2.55.85,3.79Zm-65.14,29.94c-4.83,1.71-8.68,1.76-11,.42-5-2.86-7-13.87-4.2-28.65.32-1.69.7-3.43,1.14-5.2a158.5,158.5,0,0,0,21.14,3.06,163.2,163.2,0,0,0,13.46,16.63c-1,1-2,1.89-3,2.75-6.08,5.32-12.18,9.1-17.55,11ZM92.6,168.82c-7.65-2.61-14-6-18.29-9.72-3.89-3.33-5.86-6.64-5.86-9.32,0-5.71,8.52-13,22.72-17.95,1.72-.6,3.53-1.16,5.4-1.7a160.93,160.93,0,0,0,7.64,19.81A164,164,0,0,0,96.47,170c-1.33-.38-2.62-.79-3.87-1.21Zm7.59-51.62c-3-15.07-1-26.43,3.93-29.28,5.25-3,16.85,1.29,29.08,12.15.78.69,1.57,1.42,2.35,2.17a162.15,162.15,0,0,0-13.36,16.54A163.65,163.65,0,0,0,101.26,122c-.4-1.64-.77-3.26-1.07-4.83Zm67.65,16.7c-1.55-2.68-3.15-5.29-4.77-7.84,5,.63,9.8,1.47,14.3,2.5a143.32,143.32,0,0,1-5,13.5q-2.13-4-4.51-8.16ZM140.25,107a143.8,143.8,0,0,1,9.23,11.14c-3.07-.14-6.17-.22-9.3-.22s-6.19.08-9.24.22c3.05-4,6.17-7.75,9.31-11.14ZM112.48,134q-2.33,4-4.42,8.11c-2-4.63-3.62-9.18-5-13.57,4.48-1,9.25-1.82,14.22-2.44q-2.48,3.86-4.81,7.9Zm5,40A142.55,142.55,0,0,1,103,171.66c1.39-4.47,3.09-9.12,5.08-13.84q2.11,4.06,4.45,8.11h0q2.38,4.13,4.93,8.06Zm23,19c-3.18-3.43-6.35-7.22-9.44-11.29q4.5.16,9.18.17c3.19,0,6.35-.07,9.46-.21a143.94,143.94,0,0,1-9.2,11.33Zm32-35.42a140.15,140.15,0,0,1,5.27,13.79,141.63,141.63,0,0,1-14.63,2.5q2.44-3.87,4.82-8c1.59-2.77,3.11-5.55,4.54-8.31Zm-10.35,5c-2.45,4.25-5,8.31-7.52,12.14-4.66.33-9.46.5-14.36.5s-9.63-.15-14.21-.44c-2.65-3.89-5.23-8-7.66-12.16h0c-2.43-4.2-4.67-8.43-6.69-12.64,2-4.22,4.25-8.46,6.67-12.64h0c2.42-4.2,5-8.25,7.6-12.11,4.67-.35,9.45-.54,14.28-.54h0c4.85,0,9.64.19,14.3.54,2.6,3.83,5.13,7.87,7.56,12.07s4.72,8.46,6.76,12.58c-2,4.2-4.29,8.45-6.74,12.7Zm13.82-74.82c5.26,3,7.3,15.24,4,31.26-.21,1-.45,2.06-.71,3.12a159.81,159.81,0,0,0-21-3.31,156.24,156.24,0,0,0-13.26-16.55c1.21-1.16,2.41-2.27,3.61-3.31,11.58-10.08,22.4-14.05,27.33-11.21Z"/><path class="cls-2" d="M140.18,135.77a14,14,0,1,1-14,14,14,14,0,0,1,14-14"/></svg>